<mxfile host="app.diagrams.net" modified="2021-04-12T13:08:43.114Z" agent="5.0 (X11; Linux x86_64) AppleWebKit/537.36 (KHTML, like Gecko) Chrome/88.0.4324.182 Safari/537.36" etag="lKMKXXrFSuh5Vy9GN-Ab" version="14.5.10" type="github">
  <diagram id="zI4bSE7aFxpX7vneduOT" name="Page-1">
    <mxGraphModel dx="1129" dy="672" grid="1" gridSize="10" guides="1" tooltips="1" connect="1" arrows="1" fold="1" page="1" pageScale="1" pageWidth="827" pageHeight="1169" math="0" shadow="0">
      <root>
        <mxCell id="0" />
        <mxCell id="1" parent="0" />
        <mxCell id="EL2SVbhgqxkOV3zBF3s5-6" value="" style="edgeStyle=orthogonalEdgeStyle;rounded=0;orthogonalLoop=1;jettySize=auto;html=1;" edge="1" parent="1" source="EL2SVbhgqxkOV3zBF3s5-1" target="EL2SVbhgqxkOV3zBF3s5-2">
          <mxGeometry relative="1" as="geometry" />
        </mxCell>
        <mxCell id="EL2SVbhgqxkOV3zBF3s5-7" value="&lt;font style=&quot;font-size: 13px&quot;&gt;&lt;b&gt;Joint Position&lt;br&gt;Joint Velocity&lt;/b&gt;&lt;/font&gt;" style="edgeLabel;html=1;align=center;verticalAlign=middle;resizable=0;points=[];" vertex="1" connectable="0" parent="EL2SVbhgqxkOV3zBF3s5-6">
          <mxGeometry x="-0.2458" y="-1" relative="1" as="geometry">
            <mxPoint x="13" y="-1" as="offset" />
          </mxGeometry>
        </mxCell>
        <mxCell id="EL2SVbhgqxkOV3zBF3s5-1" value="&lt;b&gt;&lt;font style=&quot;font-size: 14px&quot;&gt;MPC&lt;/font&gt;&lt;/b&gt;" style="rounded=1;whiteSpace=wrap;html=1;" vertex="1" parent="1">
          <mxGeometry x="100" y="290" width="120" height="60" as="geometry" />
        </mxCell>
        <mxCell id="EL2SVbhgqxkOV3zBF3s5-4" value="" style="edgeStyle=orthogonalEdgeStyle;rounded=0;orthogonalLoop=1;jettySize=auto;html=1;" edge="1" parent="1" source="EL2SVbhgqxkOV3zBF3s5-2" target="EL2SVbhgqxkOV3zBF3s5-3">
          <mxGeometry relative="1" as="geometry" />
        </mxCell>
        <mxCell id="EL2SVbhgqxkOV3zBF3s5-5" value="&lt;font style=&quot;font-size: 14px&quot;&gt;&lt;b&gt;Joint Torque&lt;/b&gt;&lt;/font&gt;" style="edgeLabel;html=1;align=center;verticalAlign=middle;resizable=0;points=[];" vertex="1" connectable="0" parent="EL2SVbhgqxkOV3zBF3s5-4">
          <mxGeometry x="0.275" relative="1" as="geometry">
            <mxPoint x="-16" as="offset" />
          </mxGeometry>
        </mxCell>
        <mxCell id="EL2SVbhgqxkOV3zBF3s5-2" value="&lt;font style=&quot;font-size: 14px&quot;&gt;&lt;b&gt;Joint Impedance Control&lt;/b&gt;&lt;/font&gt;" style="rounded=1;whiteSpace=wrap;html=1;" vertex="1" parent="1">
          <mxGeometry x="370" y="290" width="120" height="60" as="geometry" />
        </mxCell>
        <mxCell id="EL2SVbhgqxkOV3zBF3s5-9" style="edgeStyle=orthogonalEdgeStyle;rounded=0;orthogonalLoop=1;jettySize=auto;html=1;" edge="1" parent="1" source="EL2SVbhgqxkOV3zBF3s5-3">
          <mxGeometry relative="1" as="geometry">
            <mxPoint x="190" y="350" as="targetPoint" />
            <Array as="points">
              <mxPoint x="680" y="400" />
              <mxPoint x="190" y="400" />
              <mxPoint x="190" y="350" />
            </Array>
          </mxGeometry>
        </mxCell>
        <mxCell id="EL2SVbhgqxkOV3zBF3s5-10" value="&lt;font style=&quot;font-size: 13px&quot;&gt;&lt;b&gt;Joint Position&lt;br&gt;Joint Velocity&lt;/b&gt;&lt;/font&gt;" style="edgeLabel;html=1;align=center;verticalAlign=middle;resizable=0;points=[];" vertex="1" connectable="0" parent="EL2SVbhgqxkOV3zBF3s5-9">
          <mxGeometry x="-0.1215" relative="1" as="geometry">
            <mxPoint as="offset" />
          </mxGeometry>
        </mxCell>
        <mxCell id="EL2SVbhgqxkOV3zBF3s5-21" style="edgeStyle=orthogonalEdgeStyle;rounded=0;orthogonalLoop=1;jettySize=auto;html=1;exitX=0.75;exitY=1;exitDx=0;exitDy=0;entryX=1;entryY=0.5;entryDx=0;entryDy=0;" edge="1" parent="1" source="EL2SVbhgqxkOV3zBF3s5-3" target="EL2SVbhgqxkOV3zBF3s5-15">
          <mxGeometry relative="1" as="geometry" />
        </mxCell>
        <mxCell id="EL2SVbhgqxkOV3zBF3s5-22" value="&lt;font style=&quot;font-size: 13px&quot;&gt;&lt;b&gt;Joint Position&lt;/b&gt;&lt;/font&gt;" style="edgeLabel;html=1;align=center;verticalAlign=middle;resizable=0;points=[];" vertex="1" connectable="0" parent="EL2SVbhgqxkOV3zBF3s5-21">
          <mxGeometry x="0.2198" y="-2" relative="1" as="geometry">
            <mxPoint as="offset" />
          </mxGeometry>
        </mxCell>
        <mxCell id="EL2SVbhgqxkOV3zBF3s5-3" value="&lt;font style=&quot;font-size: 14px&quot;&gt;&lt;b&gt;Robot&lt;/b&gt;&lt;/font&gt;" style="rounded=1;whiteSpace=wrap;html=1;" vertex="1" parent="1">
          <mxGeometry x="620" y="290" width="120" height="60" as="geometry" />
        </mxCell>
        <mxCell id="EL2SVbhgqxkOV3zBF3s5-12" value="" style="edgeStyle=orthogonalEdgeStyle;rounded=0;orthogonalLoop=1;jettySize=auto;html=1;" edge="1" parent="1" source="EL2SVbhgqxkOV3zBF3s5-11" target="EL2SVbhgqxkOV3zBF3s5-1">
          <mxGeometry relative="1" as="geometry">
            <Array as="points">
              <mxPoint x="160" y="260" />
              <mxPoint x="160" y="260" />
            </Array>
          </mxGeometry>
        </mxCell>
        <mxCell id="EL2SVbhgqxkOV3zBF3s5-11" value="&lt;font style=&quot;font-size: 14px&quot;&gt;&lt;b&gt;PRM&lt;/b&gt;&lt;/font&gt;" style="rounded=1;whiteSpace=wrap;html=1;" vertex="1" parent="1">
          <mxGeometry x="100" y="160" width="120" height="60" as="geometry" />
        </mxCell>
        <mxCell id="EL2SVbhgqxkOV3zBF3s5-14" value="&lt;font size=&quot;1&quot;&gt;&lt;b style=&quot;font-size: 13px&quot;&gt;Initial guess&lt;/b&gt;&lt;/font&gt;" style="text;html=1;strokeColor=none;fillColor=none;align=center;verticalAlign=middle;whiteSpace=wrap;rounded=0;" vertex="1" parent="1">
          <mxGeometry x="150" y="230" width="70" height="30" as="geometry" />
        </mxCell>
        <mxCell id="EL2SVbhgqxkOV3zBF3s5-23" value="" style="edgeStyle=orthogonalEdgeStyle;rounded=0;orthogonalLoop=1;jettySize=auto;html=1;" edge="1" parent="1" source="EL2SVbhgqxkOV3zBF3s5-15" target="EL2SVbhgqxkOV3zBF3s5-1">
          <mxGeometry relative="1" as="geometry" />
        </mxCell>
        <mxCell id="EL2SVbhgqxkOV3zBF3s5-15" value="&lt;font style=&quot;font-size: 14px&quot;&gt;&lt;b&gt;Collision Detection&lt;/b&gt;&lt;/font&gt;" style="rounded=1;whiteSpace=wrap;html=1;" vertex="1" parent="1">
          <mxGeometry x="100" y="430" width="120" height="60" as="geometry" />
        </mxCell>
        <mxCell id="EL2SVbhgqxkOV3zBF3s5-24" value="&lt;font style=&quot;font-size: 13px&quot;&gt;&lt;b&gt;Obstacle&lt;br&gt;Info&lt;/b&gt;&lt;/font&gt;" style="text;html=1;strokeColor=none;fillColor=none;align=center;verticalAlign=middle;whiteSpace=wrap;rounded=0;" vertex="1" parent="1">
          <mxGeometry x="90" y="380" width="80" height="50" as="geometry" />
        </mxCell>
      </root>
    </mxGraphModel>
  </diagram>
</mxfile>
